<svg width="26" height="26" viewBox="0 0 26 26" fill="none" xmlns="http://www.w3.org/2000/svg">
<path d="M21.9375 3.25H0.8125V19.5H21.9375V3.25ZM20.3125 17.875H2.4375V4.875H20.3125V17.875Z" fill="#4971FF"/>
<path d="M23.5625 7.3125V21.125H4.875V22.75H25.1875V7.3125H23.5625Z" fill="#4971FF"/>
<path d="M11.375 15.3593C13.391 15.3593 15.0312 13.575 15.0312 11.3818C15.0312 9.18861 13.391 7.40431 11.375 7.40431C9.35898 7.40431 7.71875 9.18856 7.71875 11.3818C7.71875 13.575 9.35898 15.3593 11.375 15.3593ZM11.375 9.02931C12.495 9.02931 13.4062 10.0846 13.4062 11.3818C13.4062 12.679 12.495 13.7343 11.375 13.7343C10.255 13.7343 9.34375 12.679 9.34375 11.3818C9.34375 10.0846 10.255 9.02931 11.375 9.02931ZM4.0625 6.90625H5.6875V15.8438H4.0625V6.90625ZM17.0625 6.90625H18.6875V15.8438H17.0625V6.90625Z" fill="#4971FF"/>
</svg>
