<svg width="57" height="57" viewBox="0 0 57 57" fill="none" xmlns="http://www.w3.org/2000/svg">
<circle cx="28.5" cy="28.5" r="28.5" fill="#EEF1F3"/>
<path d="M37.9375 20.25H16.8125V36.5H37.9375V20.25ZM36.3125 34.875H18.4375V21.875H36.3125V34.875Z" fill="#4971FF"/>
<path d="M39.5625 24.3125V38.125H20.875V39.75H41.1875V24.3125H39.5625Z" fill="#4971FF"/>
<path d="M27.375 32.3593C29.391 32.3593 31.0312 30.575 31.0312 28.3818C31.0312 26.1886 29.391 24.4043 27.375 24.4043C25.359 24.4043 23.7188 26.1886 23.7188 28.3818C23.7188 30.575 25.359 32.3593 27.375 32.3593ZM27.375 26.0293C28.495 26.0293 29.4062 27.0846 29.4062 28.3818C29.4062 29.679 28.495 30.7343 27.375 30.7343C26.255 30.7343 25.3438 29.679 25.3438 28.3818C25.3438 27.0846 26.255 26.0293 27.375 26.0293ZM20.0625 23.9062H21.6875V32.8438H20.0625V23.9062ZM33.0625 23.9062H34.6875V32.8438H33.0625V23.9062Z" fill="#4971FF"/>
</svg>
